 <svg version="1.0" xmlns="http://www.w3.org/2000/svg" width="700.000000pt" height="394.000000pt" viewBox="0 0 700.000000 394.000000" preserveAspectRatio="xMidYMid meet">
<metadata>
Created by potrace 1.12, written by Peter Selinger 2001-2015
</metadata>
<g transform="translate(0.000000,394.000000) scale(0.100000,-0.100000)" fill="#000000" stroke="none">
<path d="M2290 3680 l0 -250 80 0 80 0 0 64 c0 95 1 96 80 96 l67 0 7 -37 c3
-21 6 -57 6 -80 l0 -43 85 0 85 0 0 250 0 250 -85 0 -84 0 -3 -77 -3 -78 -77
-3 -78 -3 0 81 0 80 -80 0 -80 0 0 -250z"></path>
<path d="M2850 3845 l0 -85 70 0 70 0 0 -165 0 -165 90 0 90 0 0 165 0 165 70
0 70 0 0 85 0 85 -230 0 -230 0 0 -85z"></path>
<path d="M3386 3878 c-8 -68 -8 -294 1 -380 l6 -68 78 0 79 0 1 63 c0 34 4 82
7 107 l7 44 38 -53 c21 -29 41 -59 44 -67 10 -28 31 -13 79 59 l49 72 5 -110
5 -110 81 -3 81 -3 7 32 c8 41 8 314 -1 402 l-6 67 -86 0 -86 0 -49 -80 c-27
-44 -52 -80 -56 -80 -5 0 -31 36 -59 80 l-51 80 -83 0 -84 0 -7 -52z"></path>
<path d="M4037 3923 c-12 -12 -8 -481 4 -489 16 -10 319 -18 363 -10 l36 7 0
78 c0 63 -3 80 -16 85 -9 3 -60 6 -115 6 l-99 0 0 134 c0 73 -3 148 -6 165
l-6 31 -78 0 c-42 0 -80 -3 -83 -7z"></path>
<path d="M1454 3821 c-23 -10 -69 -48 -104 -84 -48 -51 -86 -78 -173 -124
-144 -75 -174 -106 -211 -213 -49 -145 -171 -447 -251 -625 -42 -93 -85 -201
-96 -240 -27 -90 -36 -292 -20 -435 7 -58 16 -165 21 -237 7 -116 11 -138 34
-177 39 -67 111 -99 241 -107 80 -5 123 -15 216 -47 223 -77 430 -109 613 -93
127 11 206 1 275 -34 53 -26 168 -143 176 -178 3 -12 20 -179 40 -371 23 -233
39 -354 47 -362 7 -6 49 -22 93 -34 172 -48 476 -136 757 -219 l237 -70 78 24
c43 13 143 41 223 63 80 22 228 64 330 92 102 28 212 60 245 70 33 10 97 28
143 40 45 13 85 27 88 31 5 9 21 144 58 500 26 250 26 248 110 337 96 100 190
129 367 111 177 -17 434 22 639 99 74 27 117 37 195 42 142 10 202 36 245 106
18 28 24 58 30 162 5 70 16 192 25 272 25 218 7 364 -63 527 -16 38 -60 138
-97 223 -70 163 -149 361 -205 519 -42 119 -72 149 -210 221 -82 42 -119 68
-172 122 -80 82 -130 107 -214 108 -80 0 -144 -32 -218 -110 -96 -100 -118
-180 -71 -255 13 -22 25 -50 25 -63 0 -36 26 -76 77 -122 26 -23 52 -55 58
-72 5 -17 22 -40 37 -51 34 -26 122 -34 194 -18 46 11 56 10 79 -5 15 -10 48
-23 73 -29 l47 -12 3 -55 c3 -51 0 -60 -44 -124 -65 -97 -104 -177 -130 -264
l-22 -75 -78 3 c-101 4 -211 -24 -310 -78 l-72 -40 -27 46 c-15 26 -43 64 -63
85 -33 38 -34 42 -28 92 18 149 56 540 53 543 -2 2 -374 5 -828 6 -453 1
-1076 4 -1384 8 -308 3 -561 5 -563 4 -2 -1 11 -139 29 -307 l32 -304 -44 -55
c-24 -30 -52 -69 -61 -87 l-17 -31 -64 35 c-110 61 -170 77 -292 81 l-109 3
-12 53 c-18 77 -58 162 -122 257 -53 79 -57 89 -57 144 l0 60 47 11 c25 7 58
20 73 30 23 15 34 16 70 7 115 -29 206 -5 239 64 11 22 29 47 40 54 44 31 87
87 96 126 6 22 19 57 30 77 23 43 26 105 6 152 -21 51 -131 162 -189 190 -63
32 -151 35 -213 7z m232 -69 c100 -52 173 -183 134 -242 -8 -12 -16 -8 -45 25
-35 41 -45 39 -20 -5 28 -49 17 -136 -23 -182 -13 -16 -17 -13 -49 40 -39 64
-41 67 -48 61 -2 -3 2 -23 10 -44 8 -22 14 -62 15 -88 0 -40 -5 -53 -28 -77
-29 -29 -94 -46 -143 -38 l-24 4 28 14 c16 8 35 26 43 41 16 32 17 39 5 58 -8
12 -15 9 -42 -14 -30 -24 -39 -27 -86 -22 l-53 6 0 -39 c0 -70 -55 -86 -169
-51 -34 10 -61 15 -61 11 0 -15 51 -69 71 -75 17 -6 20 -13 16 -38 -8 -56 13
-148 58 -251 44 -101 85 -232 85 -271 0 -14 -14 -28 -44 -43 -24 -13 -71 -50
-103 -82 -66 -64 -156 -185 -151 -201 2 -6 19 11 38 37 41 55 162 155 229 188
89 45 147 58 234 54 66 -3 95 -9 147 -34 68 -32 151 -95 161 -122 4 -11 11 -7
27 19 11 19 47 60 80 92 l59 58 6 -53 c38 -333 68 -607 73 -668 3 -41 12 -138
19 -215 7 -77 11 -142 8 -145 -3 -3 -14 6 -24 20 -10 14 -54 75 -98 135 -133
184 -141 192 -141 135 0 -25 4 -29 22 -27 17 1 24 -5 32 -32 32 -110 -139
-180 -414 -168 -134 6 -205 23 -293 73 -57 31 -147 112 -166 148 -17 31 -31
34 -31 5 0 -23 -18 -61 -33 -71 -22 -14 -145 -19 -188 -8 -89 24 -103 54 -124
263 -8 85 -20 178 -25 207 -15 77 -12 206 5 299 23 118 82 281 201 554 58 133
119 280 136 327 45 128 63 152 165 204 62 32 117 72 186 135 59 55 114 96 140
105 54 20 141 15 193 -12z m3537 12 c33 -11 76 -43 144 -105 69 -63 124 -103
186 -135 102 -52 120 -75 165 -204 17 -47 56 -143 87 -215 176 -401 223 -527
251 -673 16 -87 18 -217 4 -293 -6 -30 -17 -123 -25 -208 -17 -174 -31 -214
-85 -246 -27 -15 -52 -20 -110 -19 -41 0 -87 3 -101 7 -26 7 -49 43 -49 77 0
30 -12 24 -48 -25 -98 -134 -269 -205 -489 -205 -193 1 -332 42 -359 107 -20
46 -6 99 24 96 18 -2 22 2 22 27 0 58 -5 52 -157 -155 -52 -71 -101 -134 -110
-138 -12 -8 -13 -6 -3 12 6 12 10 43 9 69 -1 26 2 76 6 112 4 36 7 72 7 80 0
8 4 51 9 95 43 407 60 554 65 575 4 21 12 93 14 135 0 14 118 -104 142 -144
13 -20 24 -29 26 -22 9 27 80 83 151 119 65 32 86 37 157 41 88 3 146 -10 235
-55 67 -33 188 -133 229 -188 19 -26 36 -43 38 -37 5 15 -82 133 -147 199 -31
31 -78 68 -104 82 -34 18 -47 31 -47 46 0 38 48 190 89 281 45 101 65 186 55
237 -4 23 -2 36 4 36 14 0 82 65 82 78 0 6 -25 2 -61 -9 -114 -35 -169 -19
-169 51 l0 39 -53 -6 c-47 -5 -56 -2 -86 22 -27 23 -34 26 -42 14 -12 -19 -11
-26 5 -58 8 -15 27 -33 43 -41 l28 -14 -24 -4 c-49 -8 -114 9 -143 38 -23 24
-28 37 -28 77 1 26 7 66 15 88 8 21 12 41 10 44 -7 6 -9 3 -48 -61 -32 -53
-36 -56 -49 -40 -40 46 -51 133 -23 182 25 43 15 46 -19 6 -39 -46 -56 -41
-56 15 0 49 27 104 72 145 90 83 163 102 261 68z m-551 -614 c-1 -25 -9 -112
-17 -195 -8 -82 -26 -283 -40 -445 -14 -162 -32 -367 -40 -455 -9 -88 -24
-261 -35 -385 -11 -124 -31 -353 -45 -510 -14 -157 -32 -364 -41 -460 -8 -96
-16 -180 -18 -186 -3 -6 -26 -17 -53 -23 -26 -7 -104 -28 -173 -47 -304 -85
-541 -151 -705 -195 -60 -17 -118 -34 -128 -40 -13 -7 -34 -4 -75 10 -31 10
-100 31 -152 45 -52 14 -194 53 -315 87 -561 154 -520 141 -506 167 5 10 8 36
5 58 -2 21 -16 170 -29 329 -14 160 -32 362 -40 450 -9 88 -26 286 -40 440
-13 154 -36 411 -50 570 -14 160 -32 360 -40 445 -9 85 -17 193 -18 240 l-2
85 1260 5 c693 3 1261 6 1263 8 20 20 -107 22 -1276 22 -703 0 -1281 -2 -1283
-4 -2 -3 1 -67 7 -143 17 -200 71 -796 99 -1103 14 -146 29 -319 34 -385 12
-147 78 -888 86 -967 5 -51 -5 -83 -19 -60 -7 12 -72 674 -91 932 -4 47 -8
103 -11 125 -5 43 -45 493 -94 1050 -17 187 -35 389 -41 448 -6 59 -8 115 -5
123 5 12 179 14 1318 12 l1313 -3 -3 -45z"></path>
<path d="M1428 3683 c-18 -15 -64 -56 -101 -91 -45 -41 -94 -75 -140 -96 -40
-18 -80 -42 -89 -52 -21 -24 -62 -114 -54 -121 2 -3 18 10 34 29 17 19 71 53
124 80 110 55 204 135 247 212 44 76 38 87 -21 39z m-63 -113 c-10 -11 -23
-20 -28 -20 -6 0 -2 9 8 20 10 11 23 20 28 20 6 0 2 -9 -8 -20z m-96 -74 c-7
-7 -117 -66 -123 -66 -17 0 -2 17 27 31 62 31 110 48 96 35z"></path>
<path d="M1161 3071 c-16 -29 -13 -57 10 -102 26 -52 38 -42 14 12 -15 33 -17
46 -8 70 13 33 -1 49 -16 20z"></path>
<path d="M737 2588 c-45 -139 -71 -299 -61 -385 8 -75 24 -84 24 -13 0 69 14
63 28 -14 15 -78 15 -146 2 -146 -5 0 -10 7 -10 15 0 8 -5 15 -11 15 -7 0 -8
-29 -3 -92 7 -99 10 -110 23 -89 33 52 37 211 11 351 -20 107 4 345 45 453 4
9 3 17 -2 17 -5 0 -26 -51 -46 -112z"></path>
<path d="M1282 2599 c-16 -53 -7 -64 13 -16 17 40 19 57 7 57 -4 0 -13 -19
-20 -41z"></path>
<path d="M1468 2503 c-16 -2 -28 -9 -28 -15 0 -6 16 -8 43 -4 47 7 135 -12
195 -43 43 -22 119 -87 112 -94 -3 -3 -36 5 -75 19 -127 43 -320 28 -470 -36
-26 -11 -55 -20 -64 -20 -19 0 -55 -33 -45 -42 3 -3 38 9 77 27 110 51 215 75
327 75 148 0 226 -28 322 -118 l47 -43 12 23 c7 13 32 49 57 81 42 55 51 85
17 57 -21 -17 -19 -3 6 36 11 19 19 41 17 50 -2 10 -27 -16 -67 -70 -35 -47
-65 -86 -67 -86 -3 0 -32 28 -67 63 -113 115 -223 159 -349 140z m447 -232
c-3 -6 -11 -11 -17 -11 -6 0 -6 6 2 15 14 17 26 13 15 -4z"></path>
<path d="M690 2100 c0 -11 5 -20 10 -20 6 0 10 9 10 20 0 11 -4 20 -10 20 -5
0 -10 -9 -10 -20z"></path>
<path d="M1024 1834 c3 -9 6 -20 6 -25 0 -5 7 -9 15 -9 9 0 50 -24 93 -54 202
-141 414 -200 583 -162 83 18 130 43 155 81 27 41 10 39 -32 -4 -33 -33 -51
-41 -118 -56 -174 -39 -369 14 -578 157 -47 33 -92 66 -98 74 -17 19 -34 18
-26 -2z"></path>
<path d="M740 1755 c0 -8 15 -22 33 -31 l32 -16 -29 31 c-34 35 -36 36 -36 16z"></path>
<path d="M2040 1675 c0 -28 41 -77 48 -57 3 11 -34 82 -44 82 -2 0 -4 -11 -4
-25z"></path>
<path d="M5240 3702 c0 -22 82 -133 131 -175 30 -26 96 -69 148 -95 52 -26
106 -62 123 -80 16 -19 32 -32 34 -29 8 7 -33 97 -54 120 -9 11 -50 35 -91 55
-46 21 -99 58 -140 96 -113 106 -151 132 -151 108z m140 -137 c7 -8 8 -15 2
-15 -5 0 -15 7 -22 15 -7 8 -8 15 -2 15 5 0 15 -7 22 -15z m168 -103 c28 -14
43 -32 27 -32 -10 0 -100 48 -120 64 -18 15 -16 15 20 0 22 -8 55 -23 73 -32z"></path>
<path d="M5537 3084 c-2 -3 0 -18 6 -34 9 -23 7 -36 -8 -69 -24 -55 -12 -64
15 -11 16 31 20 52 15 76 -6 33 -17 49 -28 38z"></path>
<path d="M5935 2683 c42 -110 65 -344 45 -453 -26 -140 -22 -299 11 -351 13
-21 16 -10 23 89 5 63 4 92 -3 92 -6 0 -11 -7 -11 -15 0 -8 -4 -15 -10 -15 -5
0 -10 18 -10 40 0 55 22 180 32 180 4 0 8 -25 8 -55 0 -30 4 -55 9 -55 18 0
22 126 6 230 -16 109 -82 330 -98 330 -5 0 -6 -8 -2 -17z"></path>
<path d="M5410 2631 c0 -20 23 -71 32 -71 6 0 7 7 4 16 -3 9 -9 27 -12 40 -6
22 -24 34 -24 15z"></path>
<path d="M5107 2495 c-71 -19 -152 -72 -212 -137 -28 -32 -54 -58 -57 -58 -3
0 -34 38 -69 85 -34 47 -65 85 -67 85 -11 0 12 -58 34 -87 31 -41 31 -67 0
-28 -45 55 -39 17 6 -42 25 -32 50 -68 57 -81 l12 -23 47 43 c26 24 63 53 82
65 45 27 133 53 182 53 21 0 38 5 38 10 0 18 -83 10 -155 -14 -38 -14 -72 -22
-75 -19 -7 8 70 72 113 94 58 30 153 51 198 44 23 -4 39 -3 39 3 0 10 -58 22
-100 21 -14 0 -47 -7 -73 -14z m-281 -232 c-7 -7 -26 7 -26 19 0 6 6 6 15 -2
9 -7 13 -15 11 -17z"></path>
<path d="M5180 2380 c0 -5 22 -10 48 -10 64 0 190 -34 279 -75 39 -18 74 -30
77 -27 10 9 -26 42 -45 42 -9 0 -38 9 -64 20 -106 45 -295 77 -295 50z"></path>
<path d="M6010 2100 c0 -11 5 -20 10 -20 6 0 10 9 10 20 0 11 -4 20 -10 20 -5
0 -10 -9 -10 -20z"></path>
<path d="M5670 1836 c-6 -8 -51 -41 -98 -74 -209 -143 -404 -196 -578 -157
-67 15 -85 23 -118 56 -43 44 -61 44 -29 1 29 -39 71 -61 154 -78 171 -37 380
22 581 162 43 30 84 54 93 54 8 0 15 4 15 9 0 5 3 16 6 25 8 20 -9 21 -26 2z"></path>
<path d="M5944 1739 c-22 -24 -24 -29 -8 -21 24 13 49 40 42 47 -2 3 -18 -9
-34 -26z"></path>
<path d="M4659 1679 c-8 -13 -20 -36 -27 -52 l-12 -27 25 16 c25 16 41 52 33
75 -2 7 -10 1 -19 -12z"></path>
<path d="M2520 2660 c-11 -11 -20 -23 -20 -27 0 -5 11 -134 25 -288 14 -154
32 -359 40 -455 19 -227 23 -250 43 -256 10 -3 25 -10 34 -14 9 -6 262 -10
570 -10 526 -1 553 0 553 17 0 17 -29 18 -572 21 l-571 2 -6 48 c-14 108 -72
775 -79 902 l-2 45 828 0 c614 0 827 3 827 11 0 7 -7 15 -16 18 -9 3 -380 6
-825 6 -796 0 -809 0 -829 -20z"></path>
<path d="M4185 2608 c-3 -13 -25 -243 -25 -272 0 -14 -60 -16 -629 -16 -347 0
-632 -4 -635 -8 -6 -10 20 -322 28 -329 8 -8 38 6 32 15 -2 4 -10 57 -16 118
-6 60 -12 121 -15 137 l-4 27 629 0 c348 0 631 4 634 9 5 8 17 109 31 264 5
57 3 67 -10 67 -9 0 -17 -6 -20 -12z"></path>
<path d="M2977 2003 c-4 -3 -7 -10 -7 -15 0 -4 261 -9 580 -10 430 -2 580 0
580 8 0 7 -7 15 -16 18 -21 8 -1129 8 -1137 -1z"></path>
<path d="M4126 1938 c-3 -7 -14 -128 -26 -268 -12 -140 -32 -356 -44 -480
l-22 -225 -37 -12 c-20 -7 -112 -33 -205 -59 -92 -25 -189 -52 -217 -60 -27
-7 -87 -23 -133 -35 -93 -24 -56 -29 -327 46 -66 18 -187 52 -270 75 -82 23
-153 45 -157 49 -4 3 -16 103 -28 221 -11 118 -22 232 -24 253 l-4 37 168 0
167 0 8 -112 c7 -120 17 -158 38 -158 7 0 87 -20 178 -45 l164 -45 175 46 c96
26 180 52 187 58 12 11 47 355 37 365 -15 16 -27 -35 -40 -175 -9 -88 -19
-163 -24 -167 -4 -5 -80 -28 -169 -52 l-161 -44 -142 39 c-79 22 -155 40 -170
40 -30 0 -33 8 -43 134 -4 43 -13 93 -21 111 -12 29 -20 35 -58 40 -75 12
-281 2 -299 -14 -22 -18 -22 -75 3 -331 13 -129 24 -208 32 -215 15 -13 47
-24 193 -64 61 -17 204 -57 320 -89 l210 -59 120 33 c66 17 156 42 200 54 44
12 94 26 110 30 60 15 248 70 251 73 2 2 17 156 34 342 16 187 37 412 45 500
8 88 15 163 15 168 0 12 -30 8 -34 -5z"></path>
</g>
</svg>