<?xml version="1.0" encoding="UTF-8"?>
<svg xmlns="http://www.w3.org/2000/svg" xmlns:xlink="http://www.w3.org/1999/xlink" viewBox="0 0 48 48" version="1.1" width="48px" height="48px">
<g id="surface1">
<path style=" fill:#FF80AB;" d="M 32.5 13 C 27.300781 13 23 14.101563 23 16 L 23 34 C 23 35.800781 27.300781 37 32.5 37 C 37.699219 37 42 35.800781 42 34 L 42 16.101563 C 42 14.199219 37.699219 13 32.5 13 Z "/>
<path style=" fill:#EC407A;" d="M 42 22.5 L 42 25 C 39.398438 26.898438 34.398438 27 32.5 27 C 30.601563 27 25.800781 26.800781 23 25.300781 L 23 22.5 C 23 23.898438 27.300781 25 32.5 25 C 37.699219 25 42 23.898438 42 22.5 Z M 32.5 19 C 27.300781 19 23 17.898438 23 16.5 L 23 19.300781 C 25.800781 20.800781 30.601563 21 32.5 21 C 34.398438 21 39.398438 20.898438 42 19 L 42 16.5 C 42 17.898438 37.699219 19 32.5 19 Z M 32.5 31 C 27.300781 31 23 29.898438 23 28.5 L 23 31.300781 C 25.800781 32.800781 30.601563 33 32.5 33 C 34.398438 33 39.300781 32.800781 42 31 L 42 28.5 C 42 29.898438 37.699219 31 32.5 31 Z "/>
<path style=" fill:#C51162;" d="M 27 42 L 6 38 L 6 10 L 27 6 Z "/>
<path style=" fill:#FFFFFF;" d="M 17.398438 16.5 C 16.300781 16.601563 15.199219 16.699219 14.101563 16.699219 C 12.699219 21.699219 11.300781 26.699219 10 31.699219 C 10.898438 31.800781 11.800781 31.800781 12.699219 31.898438 C 13 30.800781 13.300781 29.699219 13.5 28.5 C 14.898438 28.601563 16.398438 28.601563 17.800781 28.601563 C 18.101563 29.800781 18.398438 31 18.699219 32.199219 C 19.800781 32.300781 20.800781 32.398438 21.898438 32.5 C 20.5 27.199219 19 21.800781 17.398438 16.5 Z M 14.199219 26 C 14.699219 23.800781 15.398438 21.601563 15.699219 19.300781 C 16.101563 21.601563 16.800781 23.699219 17.300781 26 C 16.199219 26 15.199219 26 14.199219 26 Z "/>
</g>
</svg>
